<svg xmlns="http://www.w3.org/2000/svg" viewBox="0 0 200 200">
  <ellipse transform="matrix(0.9709 -0.2395 0.2395 0.9709 -21.7412 29.0587)" fill="#FCFAFB" cx="104.5" cy="108.978" rx="66" ry="66"/>
  <ellipse transform="matrix(0.9709 -0.2395 0.2395 0.9709 -24.5052 25.744)" fill="#E2B2A6" cx="93.664" cy="112.692" rx="64.337" ry="67.989"/>
  <ellipse transform="matrix(0.9709 -0.2395 0.2395 0.9709 -23.3292 27.9243)" fill="#FCDFD4" cx="103.223" cy="110.944" rx="61.25" ry="68.62"/>
  <ellipse transform="matrix(0.9709 -0.2395 0.2395 0.9709 -23.6699 27.3428)" fill="none" stroke="#000" stroke-width="5" stroke-miterlimit="10" cx="100.66" cy="111.055" rx="70.936" ry="69.699"/>
  
  <path fill="#030203" d="M82.237 152.424c12.494-.214 25.558-3.408 37.245-7.733 10.118-3.744 18.183-11.121 26.043-18.246 2.394-2.17-1.153-5.695-3.536-3.536-7.294 6.611-14.603 13.195-23.837 16.96-10.93 4.456-24.148 7.353-35.916 7.554-3.221.045-3.226 5.045 0 4.99z"/>
  
  <circle fill="#D51771" stroke="#34225C" stroke-width="2" cx="116.933" cy="144.692" r="21.225"/>
  <circle fill="#34225C" stroke="#34225C" stroke-width="3" cx="117.308" cy="143.114" r="5.914"/>
  
  <path d="M72.913 101.127c-.413-3.366-.351-7.275 3.543-8.176 3.681-.851 6.886 2.965 8.312 5.761 2.197 4.31 8.668.514 6.476-3.785-3.044-5.972-9.275-10.381-16.18-9.302-7.523 1.176-10.49 8.652-9.65 15.502.58 4.737 8.087 4.793 7.499-.003z"/>
  
  <path d="M117.462 90.44c-1.528-8.103 7.435-6.364 10.373-1.417 2.467 4.153 8.952.383 6.476-3.785-3.385-5.698-9.277-8.848-15.877-7.847-7.295 1.106-9.375 8.839-8.205 15.044.897 4.743 8.125 2.726 7.233-2z"/>
  
  <path d="M97.028 38.007c-8.65-.927-19.217-2.604-25.715-8.937-7.479-7.288 4.79-12.844 10.601-13.615 4.497-.597 8.847.075 12.979 1.901 2.835 1.253 10.106 5.583 5.74 8.914-2.896 2.209-6.865 2.422-10.295 1.706-1.131-.236-2.177-.671-3.177-1.238-.651-.669-.782-.387-.391.845 1.171-.401 2.501-.335 3.718-.362 3.219-.073 3.226-5.073 0-5-2.652.06-10.408.704-8.708 5.46 1.499 4.194 6.887 5.274 10.783 5.639 5.034.471 11.912-1.713 14.077-6.668 2.481-5.68-3.771-10.571-8.004-12.996C88.733 7.98 67.63 8.564 64.355 22.28c-3.687 15.446 23.058 19.696 32.672 20.727 3.205.344 3.172-4.66 0-5z"/>
</svg>
